<svg xmlns="http://www.w3.org/2000/svg" xmlns:xlink="http://www.w3.org/1999/xlink" version="1.0" viewBox="-250 -250 500 500"><defs><use xlink:href="#a" id="b" width="500" height="500" x="0" y="0" transform="scale(1.695)"/><use xlink:href="#a" id="c" width="500" height="500" x="0" y="0" transform="scale(1.605)"/><use xlink:href="#a" id="d" width="500" height="500" x="0" y="0" transform="scale(1.065)"/><use xlink:href="#a" id="e" width="500" height="500" x="0" y="0" transform="scale(.975)"/><path id="f" stroke="silver" d="M2.566 16.2 26.52 167.4"/><path id="a" stroke-width="0" d="m0 0 15.64 98.77a100.05 100.05 0 0 1-31.28 0L0 0z"/></defs><g transform="matrix(1.104 0 0 -1.104 -1.304 -.487)"><circle r="226"/><use xlink:href="#b" width="500" height="500" fill="red"/><use xlink:href="#c" width="500" height="500"/><use xlink:href="#d" width="500" height="500" fill="red"/><use xlink:href="#e" width="500" height="500"/><g transform="rotate(18)"><use xlink:href="#b" width="500" height="500" fill="green"/><use xlink:href="#c" width="500" height="500" fill="#fff"/><use xlink:href="#d" width="500" height="500" fill="green"/><use xlink:href="#e" width="500" height="500" fill="#fff"/></g><g transform="rotate(36)"><use xlink:href="#b" width="500" height="500" fill="red"/><use xlink:href="#c" width="500" height="500"/><use xlink:href="#d" width="500" height="500" fill="red"/><use xlink:href="#e" width="500" height="500"/></g><g transform="rotate(54)"><use xlink:href="#b" width="500" height="500" fill="green"/><use xlink:href="#c" width="500" height="500" fill="#fff"/><use xlink:href="#d" width="500" height="500" fill="green"/><use xlink:href="#e" width="500" height="500" fill="#fff"/></g><g transform="rotate(72.001)"><use xlink:href="#b" width="500" height="500" fill="red"/><use xlink:href="#c" width="500" height="500"/><use xlink:href="#d" width="500" height="500" fill="red"/><use xlink:href="#e" width="500" height="500"/></g><g transform="rotate(90)"><use xlink:href="#b" width="500" height="500" fill="green"/><use xlink:href="#c" width="500" height="500" fill="#fff"/><use xlink:href="#d" width="500" height="500" fill="green"/><use xlink:href="#e" width="500" height="500" fill="#fff"/></g><g transform="rotate(108)"><use xlink:href="#b" width="500" height="500" fill="red"/><use xlink:href="#c" width="500" height="500"/><use xlink:href="#d" width="500" height="500" fill="red"/><use xlink:href="#e" width="500" height="500"/></g><g transform="rotate(126)"><use xlink:href="#b" width="500" height="500" fill="green"/><use xlink:href="#c" width="500" height="500" fill="#fff"/><use xlink:href="#d" width="500" height="500" fill="green"/><use xlink:href="#e" width="500" height="500" fill="#fff"/></g><g transform="rotate(144)"><use xlink:href="#b" width="500" height="500" fill="red"/><use xlink:href="#c" width="500" height="500"/><use xlink:href="#d" width="500" height="500" fill="red"/><use xlink:href="#e" width="500" height="500"/></g><g transform="rotate(162)"><use xlink:href="#b" width="500" height="500" fill="green"/><use xlink:href="#c" width="500" height="500" fill="#fff"/><use xlink:href="#d" width="500" height="500" fill="green"/><use xlink:href="#e" width="500" height="500" fill="#fff"/></g><g transform="scale(-1)"><use xlink:href="#b" width="500" height="500" fill="red"/><use xlink:href="#c" width="500" height="500"/><use xlink:href="#d" width="500" height="500" fill="red"/><use xlink:href="#e" width="500" height="500"/></g><g transform="rotate(198)"><use xlink:href="#b" width="500" height="500" fill="green"/><use xlink:href="#c" width="500" height="500" fill="#fff"/><use xlink:href="#d" width="500" height="500" fill="green"/><use xlink:href="#e" width="500" height="500" fill="#fff"/></g><g transform="rotate(216)"><use xlink:href="#b" width="500" height="500" fill="red"/><use xlink:href="#c" width="500" height="500"/><use xlink:href="#d" width="500" height="500" fill="red"/><use xlink:href="#e" width="500" height="500"/></g><g transform="rotate(234)"><use xlink:href="#b" width="500" height="500" fill="green"/><use xlink:href="#c" width="500" height="500" fill="#fff"/><use xlink:href="#d" width="500" height="500" fill="green"/><use xlink:href="#e" width="500" height="500" fill="#fff"/></g><g transform="rotate(252)"><use xlink:href="#b" width="500" height="500" fill="red"/><use xlink:href="#c" width="500" height="500"/><use xlink:href="#d" width="500" height="500" fill="red"/><use xlink:href="#e" width="500" height="500"/></g><g transform="rotate(-90)"><use xlink:href="#b" width="500" height="500" fill="green"/><use xlink:href="#c" width="500" height="500" fill="#fff"/><use xlink:href="#d" width="500" height="500" fill="green"/><use xlink:href="#e" width="500" height="500" fill="#fff"/></g><g transform="rotate(-72.001)"><use xlink:href="#b" width="500" height="500" fill="red"/><use xlink:href="#c" width="500" height="500"/><use xlink:href="#d" width="500" height="500" fill="red"/><use xlink:href="#e" width="500" height="500"/></g><g transform="rotate(-54)"><use xlink:href="#b" width="500" height="500" fill="green"/><use xlink:href="#c" width="500" height="500" fill="#fff"/><use xlink:href="#d" width="500" height="500" fill="green"/><use xlink:href="#e" width="500" height="500" fill="#fff"/></g><g transform="rotate(-36)"><use xlink:href="#b" width="500" height="500" fill="red"/><use xlink:href="#c" width="500" height="500"/><use xlink:href="#d" width="500" height="500" fill="red"/><use xlink:href="#e" width="500" height="500"/></g><g transform="rotate(-18)"><use xlink:href="#b" width="500" height="500" fill="green"/><use xlink:href="#c" width="500" height="500" fill="#fff"/><use xlink:href="#d" width="500" height="500" fill="green"/><use xlink:href="#e" width="500" height="500" fill="#fff"/></g><circle r="16.4" fill="green"/><circle r="6.85" fill="red"/><use xlink:href="#f" width="500" height="500"/><use xlink:href="#f" width="500" height="500" transform="rotate(18)"/><use xlink:href="#f" width="500" height="500" transform="rotate(36)"/><use xlink:href="#f" width="500" height="500" transform="rotate(54)"/><use xlink:href="#f" width="500" height="500" transform="rotate(72.001)"/><use xlink:href="#f" width="500" height="500" transform="rotate(90)"/><use xlink:href="#f" width="500" height="500" transform="rotate(108)"/><use xlink:href="#f" width="500" height="500" transform="rotate(126)"/><use xlink:href="#f" width="500" height="500" transform="rotate(144)"/><use xlink:href="#f" width="500" height="500" transform="rotate(162)"/><use xlink:href="#f" width="500" height="500" transform="scale(-1)"/><use xlink:href="#f" width="500" height="500" transform="rotate(198)"/><use xlink:href="#f" width="500" height="500" transform="rotate(216)"/><use xlink:href="#f" width="500" height="500" transform="rotate(234)"/><use xlink:href="#f" width="500" height="500" transform="rotate(252)"/><use xlink:href="#f" width="500" height="500" transform="rotate(-90)"/><use xlink:href="#f" width="500" height="500" transform="rotate(-72.001)"/><use xlink:href="#f" width="500" height="500" transform="rotate(-54)"/><use xlink:href="#f" width="500" height="500" transform="rotate(-36)"/><use xlink:href="#f" width="500" height="500" transform="rotate(-18)"/><circle r="169.5" fill="none" stroke="silver"/><circle r="160.5" fill="none" stroke="silver"/><circle r="106.5" fill="none" stroke="silver"/><circle r="97.5" fill="none" stroke="silver"/><circle r="16.4" fill="none" stroke="silver"/><circle r="6.85" fill="none" stroke="silver"/></g><g fill="silver" pointer-events="none"><path d="M232.882-.099c0-1.467-.5-2.631-1.51-3.494-1-.851-2.37-1.277-4.12-1.277-1.74 0-3.11.426-4.13 1.277-1 .863-1.5 2.027-1.5 3.494 0 1.466.5 2.625 1.5 3.477 1.02.862 2.39 1.293 4.13 1.293 1.75 0 3.12-.431 4.12-1.293 1.01-.852 1.51-2.011 1.51-3.477m10.23 6.485h-2.97c.39-.82.68-1.65.89-2.491.2-.83.3-1.655.3-2.474 0-2.157-.72-3.806-2.18-4.949-1.45-1.132-3.65-1.779-6.6-1.941.94.636 1.66 1.434 2.15 2.394.51.959.76 2.016.76 3.17 0 2.425-.73 4.339-2.21 5.741-1.47 1.412-3.47 2.118-6 2.118-2.48 0-4.47-.733-5.97-2.199s-2.25-3.418-2.25-5.854c0-2.793 1.07-4.928 3.21-6.405s5.25-2.215 9.31-2.215c3.82 0 6.86.905 9.12 2.717 2.28 1.811 3.41 4.242 3.41 7.293 0 .82-.08 1.645-.24 2.475-.16.841-.4 1.714-.73 2.62M206.082-85.656l1.65 5.07 17.52-5.69-2.9-5.16 2.83-.92 2.89 5.13 1.01 3.11-20.35 6.61 1.65 5.07-2.61.85-4.3-13.22 2.61-.85m19.15 25.69c.16 1.59-.12 2.97-.86 4.12-.73 1.17-1.83 2-3.31 2.47-2.26.74-4.27.53-6.02-.62-1.74-1.16-3.08-3.17-4.02-6.04-.31-.97-.54-1.99-.67-3.08-.15-1.08-.21-2.22-.18-3.43l3-.97c-.23 1.02-.3 2.09-.22 3.19.07 1.11.29 2.23.66 3.34.63 1.95 1.5 3.31 2.6 4.07 1.1.78 2.38.93 3.85.45 1.35-.44 2.25-1.26 2.7-2.46.46-1.19.42-2.63-.13-4.32l-.87-2.68 2.55-.83.91 2.8c.5 1.53 1.18 2.6 2.05 3.21.88.61 1.89.73 3.04.36 1.18-.39 1.95-1.1 2.3-2.14.36-1.04.29-2.34-.21-3.9-.28-.85-.67-1.73-1.17-2.65-.5-.91-1.13-1.89-1.9-2.93l2.76-.9c.72 1.07 1.32 2.1 1.82 3.07.5.98.9 1.93 1.19 2.84.77 2.36.84 4.4.21 6.12-.62 1.72-1.85 2.88-3.67 3.47-1.27.42-2.47.4-3.59-.04-1.1-.44-2.05-1.28-2.82-2.52M195.742-141.176l-15.27.91 4.84 6.67 10.43-7.58m1.8-2.36 2.42 3.32-12.74 9.25 2.03 2.79-2.2 1.59-2.02-2.78-4.61 3.34-1.91-2.63 4.61-3.34-6.41-8.82 2.55-1.85 18.28-.87M116.388-191.316l4.318 3.14 10.826-14.9-5.38-2.47 1.75-2.41 5.35 2.45 2.65 1.92-12.579 17.31 4.319 3.14-1.618 2.22-11.252-8.17 1.616-2.23m27.324 9.08c-1.25-.91-2.49-1.29-3.7-1.15-1.2.16-2.23.82-3.09 2-.85 1.18-1.17 2.36-.94 3.55.24 1.2.98 2.25 2.24 3.17 1.25.91 2.49 1.29 3.7 1.15 1.22-.16 2.25-.82 3.1-1.99.86-1.18 1.17-2.36.93-3.56-.23-1.19-.97-2.25-2.24-3.17m-1.82-3.04c-.93-1.1-1.44-2.28-1.51-3.51-.06-1.24.31-2.41 1.12-3.53 1.14-1.56 2.59-2.39 4.35-2.49 1.78-.1 3.64.56 5.57 1.96 1.95 1.42 3.14 2.98 3.59 4.69s.11 3.35-1.03 4.91c-.81 1.12-1.81 1.83-3.01 2.15s-2.46.21-3.78-.33c1.05 1.22 1.62 2.52 1.7 3.9.09 1.38-.32 2.7-1.23 3.94-1.37 1.9-3.01 2.93-4.9 3.1s-3.91-.52-6.06-2.09c-2.16-1.57-3.45-3.28-3.87-5.13s.06-3.72 1.44-5.61c.9-1.25 2.03-2.04 3.37-2.39 1.34-.34 2.76-.2 4.25.43m2.06-4.88c-.73 1.01-.99 2.03-.78 3.05.23 1.03.91 1.96 2.05 2.79s2.23 1.19 3.28 1.08c1.06-.09 1.95-.65 2.69-1.66.73-1.01.98-2.04.75-3.07s-.9-1.96-2.04-2.78c-1.14-.83-2.24-1.2-3.29-1.09-1.04.11-1.92.67-2.66 1.68M61.689-215.086l5.075 1.65 5.693-17.52-5.882-.68.92-2.83 5.85.67 3.107 1.01-6.611 20.35 5.075 1.65-.849 2.62-13.228-4.3.85-2.62M-16.004-224.046h11.401v2.75h-15.331v-2.75c1.24-1.28 2.927-3 5.062-5.16 2.145-2.16 3.493-3.56 4.043-4.19 1.046-1.17 1.774-2.16 2.183-2.97.421-.82.631-1.62.631-2.41 0-1.28-.453-2.33-1.358-3.14-.895-.81-2.065-1.21-3.51-1.21-1.024 0-2.108.18-3.251.53-1.132.36-2.345.9-3.638 1.62v-3.3c1.315-.53 2.544-.93 3.687-1.2s2.189-.4 3.137-.4c2.502 0 4.496.62 5.984 1.87 1.488 1.26 2.232 2.93 2.232 5.02 0 .99-.189 1.93-.566 2.83-.367.88-1.04 1.93-2.022 3.14-.269.31-1.126 1.21-2.571 2.71a1458.74 1458.74 0 0 1-6.113 6.26m25.196-19.24c-1.681 0-2.948.83-3.8 2.49-.841 1.65-1.261 4.13-1.261 7.45 0 3.31.42 5.8 1.261 7.46.852 1.65 2.119 2.47 3.8 2.47 1.693 0 2.96-.82 3.801-2.47.852-1.66 1.278-4.15 1.278-7.46 0-3.32-.426-5.8-1.278-7.45-.841-1.66-2.108-2.49-3.801-2.49m0-2.59c2.707 0 4.771 1.07 6.195 3.22 1.434 2.13 2.15 5.24 2.15 9.31s-.716 7.17-2.15 9.32c-1.424 2.13-3.488 3.2-6.195 3.2-2.706 0-4.776-1.07-6.21-3.2-1.423-2.15-2.134-5.25-2.134-9.32s.711-7.18 2.134-9.31c1.434-2.15 3.504-3.22 6.21-3.22M-83.628-231.296l12.198-3.96.849 2.61-9.347 3.04 1.82 5.63c.41-.3.82-.56 1.25-.78.42-.23.86-.42 1.31-.56 2.566-.84 4.824-.79 6.778.12 1.953.92 3.32 2.58 4.099 4.98.803 2.47.659 4.65-.433 6.52-1.095 1.86-3.042 3.25-5.841 4.16-.964.31-1.975.55-3.033.71-1.05.16-2.16.25-3.33.27l-1.02-3.12c1.09.2 2.17.26 3.23.19s2.144-.29 3.242-.65c1.774-.57 3.027-1.5 3.759-2.77.733-1.26.839-2.7.319-4.3-.519-1.6-1.449-2.7-2.788-3.29-1.338-.6-2.895-.61-4.672-.03-.83.27-1.63.63-2.4 1.08-.76.45-1.51 1.01-2.24 1.68l-3.75-11.53M-146.388-171.406l4.31-3.14-10.82-14.9-4.02 4.36-1.75-2.41 3.99-4.34 2.64-1.92 12.58 17.31 4.32-3.13 1.61 2.22-11.25 8.17-1.61-2.22m18.82-13.68 9.23-6.7 1.61 2.22-12.4 9.02-1.62-2.23c.25-1.77.61-4.15 1.07-7.15.46-3.01.73-4.93.81-5.76.15-1.57.16-2.8.01-3.69-.14-.91-.44-1.69-.9-2.32-.76-1.04-1.74-1.62-2.95-1.74-1.2-.13-2.38.23-3.55 1.08-.83.6-1.6 1.38-2.31 2.34-.71.95-1.38 2.1-2 3.45l-1.94-2.67c.76-1.2 1.52-2.25 2.28-3.14.77-.89 1.54-1.61 2.3-2.17 2.03-1.47 4.01-2.14 5.95-2s3.52 1.05 4.75 2.75c.58.8.98 1.67 1.2 2.62.23.93.3 2.17.21 3.73-.03.41-.19 1.64-.48 3.7s-.72 4.94-1.27 8.66M-184.388-125.006l-2.41-1.75c.8-.44 1.53-.93 2.19-1.49s1.23-1.17 1.7-1.83c1.27-1.74 1.65-3.49 1.15-5.26-.51-1.78-1.91-3.6-4.2-5.47.38 1.05.49 2.11.33 3.18-.17 1.07-.59 2.07-1.28 3.01-1.41 1.96-3.13 3.08-5.14 3.36s-4.04-.33-6.09-1.82c-2-1.46-3.18-3.22-3.53-5.29s.19-4.09 1.62-6.06c1.64-2.26 3.76-3.35 6.36-3.27 2.6.06 5.54 1.28 8.84 3.68 3.08 2.24 5.01 4.76 5.78 7.56.77 2.79.26 5.41-1.53 7.88-.48.67-1.03 1.29-1.66 1.88-.62.58-1.33 1.14-2.13 1.69m-4.46-11.28c.86-1.19 1.14-2.42.83-3.7s-1.16-2.44-2.58-3.47c-1.4-1.02-2.76-1.47-4.08-1.37s-2.41.74-3.28 1.92c-.86 1.19-1.13 2.43-.82 3.72.31 1.28 1.17 2.43 2.57 3.45 1.42 1.03 2.78 1.49 4.09 1.39 1.32-.11 2.41-.75 3.27-1.94M-219.148-53.486l1.65-5.07-17.52-5.69-.68 5.88-2.83-.92.67-5.85 1.01-3.11 20.35 6.61 1.65-5.07 2.61.85-4.29 13.22-2.62-.85m-8.54-33.72 9.71 11.83 2.54-7.85-12.25-3.98m-2.98-.07 1.27-3.9 14.97 4.86 1.06-3.28 2.59.84-1.07 3.28 5.42 1.76-1.01 3.09-5.41-1.76-3.37 10.37-3-.98-11.45-14.28M-224.858 16.429v-5.337h-18.42l1.16 5.806h-2.97l-1.17-5.774V7.857h21.4V2.52h2.75v13.909h-2.75m0-21.024v-5.337h-18.42l1.16 5.806h-2.97l-1.17-5.774v-3.267h21.4v-5.337h2.75v13.909h-2.75M-221.408 71.01c-.48-1.476-1.25-2.512-2.31-3.106-1.07-.585-2.29-.652-3.68-.202-1.38.45-2.33 1.223-2.85 2.321-.51 1.107-.53 2.399-.05 3.876s1.26 2.512 2.32 3.107c1.08.591 2.3.663 3.68.217 1.38-.45 2.33-1.229 2.84-2.336.52-1.098.54-2.39.05-3.877m.32-3.536c-.11-1.44.17-2.682.84-3.727.68-1.035 1.67-1.766 2.98-2.192 1.84-.597 3.5-.417 4.99.539 1.49.966 2.61 2.587 3.35 4.863.74 2.287.79 4.255.15 5.903-.65 1.649-1.89 2.772-3.72 3.368-1.31.427-2.55.414-3.7-.038-1.16-.442-2.11-1.271-2.87-2.487.14 1.61-.16 2.996-.91 4.156-.74 1.171-1.85 1.994-3.31 2.471-2.23.723-4.16.595-5.79-.382-1.63-.967-2.85-2.717-3.68-5.249-.82-2.533-.86-4.675-.11-6.425.75-1.74 2.24-2.971 4.46-3.694 1.47-.477 2.84-.46 4.13.051s2.35 1.459 3.19 2.843m4.53-2.733c-1.19.387-1.99 1.057-2.42 2.012-.42.965-.42 2.119.02 3.463.43 1.333 1.1 2.265 2.01 2.797.92.542 1.97.62 3.16.234 1.19-.387 1.99-1.068 2.41-2.043.43-.965.42-2.114-.01-3.447-.44-1.343-1.11-2.281-2.02-2.813-.91-.522-1.96-.589-3.15-.203M-205.538 126.951l3.13 4.317 14.91-10.827-4.36-4.012 2.41-1.75 4.33 3.987 1.92 2.643-17.31 12.576 3.14 4.318-2.22 1.616-8.18-11.252 2.23-1.616m24.96 16.285c-.86-1.187-1.95-1.834-3.27-1.942-1.31-.1-2.67.363-4.09 1.39-1.4 1.02-2.26 2.173-2.58 3.458-.31 1.287-.03 2.522.83 3.712.87 1.18 1.95 1.83 3.27 1.93s2.69-.36 4.09-1.38c1.42-1.03 2.27-2.18 2.58-3.471.31-1.279.03-2.511-.83-3.697m12.09-.771-2.4 1.749c-.17-.891-.42-1.737-.75-2.538-.32-.792-.72-1.519-1.2-2.182-1.27-1.745-2.83-2.651-4.68-2.72-1.84-.061-4 .709-6.48 2.308 1.14-.037 2.19.187 3.15.672.97.479 1.8 1.184 2.48 2.118 1.42 1.962 1.95 3.945 1.58 5.942-.36 2.01-1.56 3.76-3.61 5.25-2 1.45-4.04 2.03-6.12 1.72-2.07-.3-3.83-1.44-5.26-3.41-1.64-2.26-2.03-4.615-1.17-7.065.87-2.456 2.94-4.878 6.23-7.268 3.09-2.243 6.08-3.297 8.98-3.163 2.9.128 5.25 1.427 7.05 3.895.48.663.9 1.378 1.25 2.145.37.775.68 1.624.95 2.547M-136.208 171.874l12.56 9.13-.82 1.13-20.47 13.25-2.76-2 19.25-12.47-9.38-6.81 1.62-2.23M-91.598 222.674l5.07 1.65 5.7-17.52-5.88-.69.92-2.83 5.85.68 3.1 1.01-6.61 20.35 5.08 1.64-.85 2.62-13.23-4.3.85-2.61m18.854 8.49.919-2.83c.659.62 1.357 1.16 2.094 1.61.736.46 1.489.81 2.258 1.06 2.051.67 3.838.49 5.361-.54 1.537-1.03 2.838-2.92 3.905-5.68-.881.68-1.855 1.12-2.92 1.29-1.066.18-2.153.08-3.26-.28-2.297-.74-3.892-2.03-4.786-3.85-.88-1.82-.928-3.94-.145-6.35.766-2.36 2.078-4.03 3.936-5 1.857-.97 3.945-1.08 6.262-.33 2.656.87 4.349 2.54 5.081 5.04.745 2.48.488 5.67-.771 9.54-1.177 3.62-2.977 6.23-5.403 7.84-2.412 1.59-5.069 1.92-7.971.98-.779-.25-1.544-.59-2.294-1-.749-.42-1.505-.92-2.266-1.5m9.346-7.73c1.395.45 2.652.33 3.772-.36 1.13-.68 1.965-1.86 2.505-3.52.536-1.65.549-3.09.039-4.31-.497-1.22-1.443-2.06-2.838-2.52-1.394-.45-2.658-.33-3.792.37-1.12.69-1.948 1.86-2.484 3.51-.54 1.66-.56 3.1-.059 4.32.51 1.22 1.463 2.06 2.857 2.51M1.624 229.384c1.563.33 2.781 1.03 3.655 2.08.884 1.06 1.326 2.37 1.326 3.92 0 2.38-.82 4.22-2.458 5.53-1.639 1.3-3.968 1.96-6.987 1.96-1.013 0-2.059-.11-3.137-.31-1.068-.2-2.173-.49-3.316-.89v-3.15c.906.52 1.898.92 2.976 1.19s2.205.41 3.38.41c2.049 0 3.607-.41 4.674-1.22 1.078-.81 1.617-1.98 1.617-3.52 0-1.43-.501-2.54-1.504-3.33-.992-.81-2.377-1.22-4.156-1.22H-5.12v-2.68h2.943c1.607 0 2.836-.32 3.688-.96.851-.64 1.277-1.57 1.277-2.78 0-1.24-.442-2.19-1.326-2.84-.873-.67-2.129-1.01-3.768-1.01-.895 0-1.855.1-2.879.3-1.024.19-2.151.49-3.38.9v-2.91c1.24-.35 2.399-.6 3.477-.78 1.089-.17 2.113-.26 3.073-.26 2.48 0 4.442.57 5.887 1.7 1.444 1.12 2.167 2.64 2.167 4.56 0 1.34-.383 2.47-1.148 3.4-.766.92-1.855 1.55-3.267 1.91M56.784 233.134l5.076-1.65-5.692-17.52-5.162 2.91-.92-2.83 5.132-2.9 3.107-1.01 6.611 20.35 5.076-1.65.85 2.62-13.228 4.3-.85-2.62m12.061-26.41 14.766-4.8.43 1.32-1.305 24.35-3.246 1.05 1.233-22.89-11.028 3.58-.85-2.61M136.482 196.234l9.23-6.7 1.61 2.22-12.4 9.01-1.62-2.22c.25-1.77.61-4.15 1.07-7.15.46-3.02.73-4.94.8-5.77.16-1.56.17-2.79.02-3.69-.14-.91-.44-1.68-.9-2.32-.76-1.04-1.74-1.62-2.95-1.74-1.2-.13-2.38.24-3.55 1.08-.83.61-1.6 1.39-2.316 2.35-.706.95-1.371 2.1-1.993 3.44l-1.939-2.66a25.258 25.258 0 0 1 2.279-3.14c.767-.89 1.534-1.61 2.301-2.17 2.028-1.47 4.008-2.14 5.948-2 1.93.14 3.52 1.05 4.75 2.74.58.81.98 1.68 1.2 2.63.23.93.3 2.17.21 3.72-.03.41-.19 1.65-.48 3.71-.3 2.05-.72 4.94-1.27 8.66M183.012 154.374l3.14-4.32-14.91-10.825-2.47 5.382-2.4-1.749 2.45-5.355 1.92-2.643 17.31 12.576 3.13-4.318 2.23 1.616-8.18 11.256-2.22-1.62m-5.27-29.153 7.54-10.376 2.23 1.616-5.78 7.955 4.78 3.48c.15-.479.34-.933.55-1.361.21-.434.46-.844.74-1.227 1.58-2.181 3.43-3.474 5.55-3.879s4.2.133 6.24 1.616c2.11 1.528 3.27 3.37 3.48 5.528.21 2.151-.55 4.417-2.28 6.798-.59.82-1.27 1.607-2.03 2.36-.76.745-1.6 1.469-2.54 2.174l-2.66-1.93c1-.474 1.91-1.054 2.73-1.74.82-.685 1.56-1.494 2.24-2.427 1.1-1.509 1.57-2.993 1.42-4.45-.16-1.458-.92-2.681-2.28-3.67-1.36-.988-2.75-1.331-4.19-1.026-1.43.304-2.7 1.211-3.79 2.72-.52.706-.95 1.47-1.31 2.29-.35.812-.62 1.705-.82 2.678l-9.82-7.129M221.842 89.839l1.65-5.076-17.52-5.692-.68 5.881-2.83-.919.67-5.851 1.01-3.107 20.35 6.612 1.65-5.076 2.62.85-4.3 13.227-2.62-.849m-9.82-32.049c-.52 1.6-.12 3.061 1.19 4.384 1.31 1.31 3.55 2.478 6.71 3.504 3.14 1.023 5.64 1.391 7.48 1.104 1.83-.3 3-1.25 3.52-2.85.53-1.61.13-3.069-1.18-4.379-1.31-1.323-3.54-2.496-6.69-3.519-3.16-1.026-5.65-1.39-7.49-1.089-1.84.287-3.02 1.235-3.54 2.845m-2.46-.8c.84-2.573 2.49-4.205 4.97-4.896 2.48-.704 5.65-.426 9.53.833 3.86 1.256 6.6 2.898 8.19 4.924 1.59 2.014 1.97 4.307 1.13 6.881-.83 2.573-2.49 4.212-4.96 4.916-2.48.691-5.65.408-9.52-.848-3.87-1.259-6.61-2.895-8.2-4.909-1.6-2.026-1.98-4.327-1.14-6.9"/></g></svg>